# Blender v2.76 (sub 0) OBJ File: ''
# www.blender.org
mtllib Torus.mtl
o Torus
v 1.101663 0.000000 0.000000
v 1.049645 0.088735 -0.000000
v 0.947956 0.087350 0.000000
v 0.898337 0.000000 0.000000
v 0.947956 -0.087350 -0.000000
v 1.049645 -0.088735 0.000000
v 1.064125 0.000000 -0.285131
v 1.013879 0.088735 -0.271668
v 0.915655 0.087350 -0.245349
v 0.867727 0.000000 -0.232507
v 0.915655 -0.087350 -0.245349
v 1.013879 -0.088735 -0.271668
v 0.954068 0.000000 -0.550832
v 0.909019 0.088735 -0.524822
v 0.820954 0.087350 -0.473978
v 0.777983 0.000000 -0.449169
v 0.820954 -0.087350 -0.473978
v 0.909019 -0.088735 -0.524822
v 0.778993 0.000000 -0.778993
v 0.742211 0.088735 -0.742211
v 0.670306 0.087350 -0.670306
v 0.635220 0.000000 -0.635220
v 0.670306 -0.087350 -0.670306
v 0.742211 -0.088735 -0.742211
v 0.550831 0.000000 -0.954068
v 0.524822 0.088735 -0.909019
v 0.473978 0.087350 -0.820954
v 0.449168 0.000000 -0.777983
v 0.473978 -0.087350 -0.820954
v 0.524822 -0.088735 -0.909019
v 0.285131 0.000000 -1.064125
v 0.271668 0.088735 -1.013879
v 0.245349 0.087350 -0.915655
v 0.232507 0.000000 -0.867727
v 0.245349 -0.087350 -0.915655
v 0.271668 -0.088735 -1.013879
v 0.000000 0.000000 -1.101663
v 0.000000 0.088735 -1.049645
v 0.000000 0.087350 -0.947956
v 0.000000 0.000000 -0.898337
v 0.000000 -0.087350 -0.947956
v 0.000000 -0.088735 -1.049645
v -0.285131 0.000000 -1.064125
v -0.271668 0.088735 -1.013879
v -0.245349 0.087350 -0.915655
v -0.232507 0.000000 -0.867727
v -0.245349 -0.087350 -0.915655
v -0.271668 -0.088735 -1.013879
v -0.550831 0.000000 -0.954068
v -0.524822 0.088735 -0.909019
v -0.473978 0.087350 -0.820954
v -0.449168 0.000000 -0.777983
v -0.473978 -0.087350 -0.820954
v -0.524822 -0.088735 -0.909019
v -0.778994 0.000000 -0.778993
v -0.742211 0.088735 -0.742211
v -0.670306 0.087350 -0.670306
v -0.635220 0.000000 -0.635220
v -0.670306 -0.087350 -0.670306
v -0.742211 -0.088735 -0.742211
v -0.954068 0.000000 -0.550832
v -0.909019 0.088735 -0.524823
v -0.820954 0.087350 -0.473978
v -0.777983 0.000000 -0.449169
v -0.820954 -0.087350 -0.473978
v -0.909019 -0.088735 -0.524823
v -1.064125 0.000000 -0.285131
v -1.013879 0.088735 -0.271668
v -0.915655 0.087350 -0.245349
v -0.867727 0.000000 -0.232507
v -0.915655 -0.087350 -0.245349
v -1.013879 -0.088735 -0.271668
v -1.101663 0.000000 -0.000000
v -1.049645 0.088735 -0.000000
v -0.947956 0.087350 -0.000000
v -0.898337 0.000000 -0.000000
v -0.947956 -0.087350 -0.000000
v -1.049645 -0.088735 -0.000000
v -1.064125 0.000000 0.285131
v -1.013879 0.088735 0.271668
v -0.915655 0.087350 0.245349
v -0.867727 0.000000 0.232507
v -0.915655 -0.087350 0.245349
v -1.013879 -0.088735 0.271668
v -0.954068 0.000000 0.550831
v -0.909019 0.088735 0.524822
v -0.820954 0.087350 0.473978
v -0.777983 0.000000 0.449168
v -0.820954 -0.087350 0.473978
v -0.909019 -0.088735 0.524822
v -0.778993 0.000000 0.778993
v -0.742211 0.088735 0.742211
v -0.670306 0.087350 0.670306
v -0.635220 0.000000 0.635220
v -0.670306 -0.087350 0.670306
v -0.742211 -0.088735 0.742211
v -0.550831 0.000000 0.954068
v -0.524822 0.088735 0.909019
v -0.473978 0.087350 0.820954
v -0.449168 0.000000 0.777983
v -0.473978 -0.087350 0.820954
v -0.524822 -0.088735 0.909019
v -0.285132 0.000000 1.064125
v -0.271668 0.088735 1.013879
v -0.245349 0.087350 0.915655
v -0.232507 0.000000 0.867727
v -0.245349 -0.087350 0.915655
v -0.271668 -0.088735 1.013879
v 0.000000 0.000000 1.101663
v 0.000000 0.088735 1.049645
v 0.000000 0.087350 0.947956
v 0.000000 0.000000 0.898337
v 0.000000 -0.087350 0.947956
v 0.000000 -0.088735 1.049645
v 0.285131 0.000000 1.064125
v 0.271668 0.088735 1.013879
v 0.245349 0.087350 0.915655
v 0.232506 0.000000 0.867727
v 0.245349 -0.087350 0.915655
v 0.271668 -0.088735 1.013879
v 0.550832 0.000000 0.954068
v 0.524822 0.088735 0.909019
v 0.473978 0.087350 0.820954
v 0.449168 0.000000 0.777983
v 0.473978 -0.087350 0.820954
v 0.524822 -0.088735 0.909019
v 0.778993 0.000000 0.778994
v 0.742210 0.088735 0.742211
v 0.670306 0.087350 0.670307
v 0.635220 0.000000 0.635221
v 0.670306 -0.087350 0.670307
v 0.742210 -0.088735 0.742211
v 0.954068 0.000000 0.550832
v 0.909019 0.088735 0.524822
v 0.820954 0.087350 0.473978
v 0.777983 0.000000 0.449169
v 0.820954 -0.087350 0.473978
v 0.909019 -0.088735 0.524822
v 1.064125 0.000000 0.285131
v 1.013879 0.088735 0.271668
v 0.915655 0.087350 0.245349
v 0.867727 0.000000 0.232507
v 0.915655 -0.087350 0.245349
v 1.013879 -0.088735 0.271668
vt 0.291134 0.905892
vt 0.317942 0.897615
vt 0.342400 0.943052
vt 0.316942 0.953839
vt 0.148767 0.339374
vt 0.167016 0.398096
vt 0.154784 0.415058
vt 0.134578 0.350036
vt 0.176531 0.334171
vt 0.193825 0.389820
vt 0.272884 0.847169
vt 0.300649 0.841966
vt 0.278902 0.922854
vt 0.258695 0.857832
vt 0.467594 0.168847
vt 0.483928 0.099349
vt 0.511899 0.106176
vt 0.496337 0.172392
vt 0.139320 0.206070
vt 0.167579 0.207844
vt 0.167579 0.272102
vt 0.139320 0.273877
vt 0.429761 0.455519
vt 0.462023 0.506578
vt 0.436878 0.519594
vt 0.403016 0.466005
vt 0.263438 0.781673
vt 0.291697 0.779898
vt 0.905022 0.753582
vt 0.909816 0.685935
vt 0.937882 0.689590
vt 0.933339 0.753696
vt 0.377034 0.399336
vt 0.405005 0.391999
vt 0.975365 0.517744
vt 1.000000 0.530203
vt 0.972388 0.573902
vt 0.946228 0.563856
vt 0.148767 0.140573
vt 0.124118 0.202433
vt 0.134577 0.129910
vt 0.935224 0.546118
vt 0.967487 0.495060
vt 0.384135 0.245441
vt 0.355129 0.245516
vt 0.360700 0.168847
vt 0.389443 0.172392
vt 0.124118 0.277514
vt 0.176531 0.145776
vt 0.167016 0.081851
vt 0.193825 0.090127
vt 0.511899 0.391998
vt 0.483928 0.399336
vt 0.467594 0.324132
vt 0.496337 0.320345
vt 0.894906 0.681292
vt 0.910469 0.609639
vt 0.923870 0.621223
vt 0.360700 0.324132
vt 0.389443 0.320345
vt 0.832580 0.106176
vt 0.804609 0.099349
vt 0.830592 0.041758
vt 0.857336 0.051305
vt 0.192824 0.033904
vt 0.218282 0.044690
vt 0.509910 0.466005
vt 0.536655 0.455519
vt 0.154784 0.064888
vt 0.216044 0.929573
vt 0.190436 0.940019
vt 0.165308 0.891733
vt 0.192231 0.883814
vt 0.951201 0.628266
vt 0.140328 0.699355
vt 0.168559 0.701506
vt 0.167651 0.765758
vt 0.139370 0.767156
vt 0.180662 0.961996
vt 0.221562 0.974341
vt 0.215127 1.000000
vt 0.543771 0.519594
vt 0.568917 0.506577
vt 0.377034 0.099349
vt 0.405005 0.106176
vt 0.183361 0.011798
vt 0.224432 0.000000
vt 0.248235 0.012561
vt 0.889598 0.756196
vt 0.937882 0.816215
vt 0.909816 0.819554
vt 0.910469 0.895461
vt 0.894906 0.829245
vt 0.923870 0.879355
vt 0.864453 0.000000
vt 0.889598 0.011518
vt 0.152838 0.908530
vt 0.133552 0.843245
vt 0.147890 0.832772
vt 0.175725 0.827940
vt 0.403017 0.041758
vt 0.429761 0.051305
vt 0.788276 0.168847
vt 0.817018 0.172392
vt 0.946228 0.928911
vt 0.951201 0.872886
vt 0.972388 0.919848
vt 0.782705 0.245516
vt 0.811710 0.245441
vt 0.100314 0.025742
vt 0.124118 0.038303
vt 0.094164 0.070432
vt 0.068706 0.059646
vt 0.322867 0.468289
vt 0.355129 0.508076
vt 0.329984 0.519594
vt 0.296123 0.477835
vt 0.935224 0.950332
vt 0.975365 0.964843
vt 1.000000 0.953899
vt 0.967487 0.990119
vt 0.436878 0.000000
vt 0.462023 0.011518
vt 0.124118 0.770590
vt 0.817018 0.320345
vt 0.788276 0.324132
vt 0.125179 0.695516
vt 0.069707 0.115869
vt 0.042898 0.107593
vt 0.169776 0.575517
vt 0.150699 0.633991
vt 0.136662 0.623140
vt 0.157785 0.558393
vt 0.030666 0.090631
vt 0.059243 0.037541
vt 0.178387 0.639563
vt 0.804609 0.399336
vt 0.832580 0.391999
vt 0.094242 0.000000
vt 0.298111 0.413418
vt 0.270140 0.420245
vt 0.196259 0.527919
vt 0.187109 0.505689
vt 0.221562 0.539043
vt 0.196466 0.584150
vt 0.277241 0.274152
vt 0.282549 0.347202
vt 0.253807 0.350747
vt 0.248236 0.274078
vt 0.010460 0.155653
vt 0.024649 0.166315
vt 0.296123 0.053589
vt 0.322867 0.064075
vt 0.298111 0.127595
vt 0.270140 0.120257
vt 0.864453 0.519594
vt 0.830592 0.466005
vt 0.857336 0.455519
vt 0.889598 0.506578
vt 0.052413 0.171518
vt 0.015202 0.231812
vt 0.000000 0.228175
vt 0.972388 0.416218
vt 1.000000 0.459916
vt 0.975365 0.472375
vt 0.946228 0.426263
vt 0.937882 0.300529
vt 0.951201 0.361854
vt 0.923870 0.368896
vt 0.909816 0.304185
vt 0.043461 0.233587
vt 0.643549 0.064075
vt 0.616804 0.053589
vt 0.650665 0.000000
vt 0.675811 0.013016
vt 0.935224 0.444001
vt 0.043461 0.297844
vt 0.015202 0.299619
vt 0.910468 0.380481
vt 0.282549 0.199249
vt 0.253807 0.195462
vt 0.000000 0.303256
vt 0.894906 0.308827
vt 0.590822 0.120257
vt 0.618793 0.127595
vt 0.024649 0.365116
vt 0.010460 0.375779
vt 0.603231 0.199249
vt 0.574488 0.195462
vt 0.052413 0.359913
vt 0.329984 0.000000
vt 0.355129 0.013016
vt 0.603231 0.347201
vt 0.574488 0.350747
vt 0.568917 0.274078
vt 0.597923 0.274152
vt 0.069707 0.415562
vt 0.042898 0.423838
vt 0.030666 0.440801
vt 0.933339 0.236423
vt 0.905022 0.236537
vt 0.697715 0.120257
vt 0.725687 0.127595
vt 0.710124 0.199249
vt 0.681382 0.195462
vt 0.889598 0.233923
vt 0.068706 0.471785
vt 0.094164 0.460999
vt 0.909816 0.170565
vt 0.937882 0.173904
vt 0.307479 0.519594
vt 0.316942 0.541699
vt 0.291133 0.589646
vt 0.278902 0.572684
vt 0.782705 0.508076
vt 0.757559 0.519594
vt 0.723698 0.477836
vt 0.750442 0.468289
vt 0.059243 0.493891
vt 0.100314 0.505689
vt 0.124118 0.493128
vt 0.317942 0.597923
vt 0.300649 0.653572
vt 0.272884 0.648369
vt 0.894906 0.160874
vt 0.725687 0.413418
vt 0.697715 0.420245
vt 0.094242 0.531431
vt 0.248236 0.710229
vt 0.258695 0.637706
vt 0.263438 0.713866
vt 0.342400 0.552486
vt 0.910469 0.094658
vt 0.923870 0.110764
vt 0.951201 0.117233
vt 0.946228 0.061209
vt 0.935224 0.039787
vt 0.972388 0.070271
vt 0.590822 0.420245
vt 0.618793 0.413418
vt 0.710124 0.347202
vt 0.681382 0.350747
vt 0.616804 0.477835
vt 0.643548 0.468289
vt 0.675811 0.508075
vt 0.650665 0.519594
vt 0.218282 0.435257
vt 0.248236 0.467386
vt 0.224432 0.479947
vt 0.192824 0.446043
vt 0.975365 0.025276
vt 0.967487 0.000000
vt 0.291697 0.715640
vt 0.704816 0.274152
vt 0.675811 0.274078
vt 1.000000 0.036220
vt 0.248236 0.785310
vt 0.218360 0.505689
vt 0.183361 0.468149
vt 0.543772 0.000000
vt 0.568917 0.011518
vt 0.536655 0.051305
vt 0.509910 0.041758
vt 0.750442 0.064075
vt 0.723698 0.053589
vt 0.462023 0.245516
vt 0.491029 0.245441
vt 0.782705 0.013016
vt 0.757559 0.000000
vt 0.307479 0.975944
vn -0.805000 -0.490700 0.333400
vn -0.013600 0.999900 0.001800
vn -0.863900 0.490700 0.113700
vn -0.863900 -0.490700 0.113700
vn -0.013600 -0.999900 0.001800
vn 0.857200 -0.502500 -0.112900
vn -0.691300 0.490700 0.530400
vn -0.805000 0.490700 0.333400
vn 0.685900 0.502500 -0.526300
vn -0.863900 -0.490700 -0.113700
vn -0.113700 -0.490700 0.863900
vn 0.526300 0.502500 -0.685900
vn -0.691300 -0.490700 0.530400
vn -0.008400 0.999900 0.010900
vn -0.010900 -0.999900 0.008400
vn -0.112900 0.502500 -0.857200
vn -0.010900 0.999900 0.008400
vn -0.333400 0.490700 0.805000
vn 0.526300 -0.502500 -0.685900
vn -0.005300 -0.999900 0.012700
vn 0.330900 0.502500 -0.798800
vn -0.330900 -0.502500 -0.798800
vn -0.008400 -0.999900 0.010900
vn -0.113700 0.490700 0.863900
vn 0.330900 -0.502500 -0.798800
vn -0.005300 0.999900 0.012700
vn 0.112900 0.502500 -0.857200
vn 0.333400 0.490700 0.805000
vn -0.333400 -0.490700 0.805000
vn 0.805000 0.490700 0.333400
vn 0.001800 0.999900 0.013600
vn 0.112900 -0.502500 -0.857200
vn -0.330900 0.502500 -0.798800
vn -0.001800 0.999900 0.013600
vn 0.113700 0.490700 0.863900
vn -0.001800 -0.999900 0.013600
vn 0.113700 -0.490700 0.863900
vn 0.005300 -0.999900 0.012700
vn 0.001800 -0.999900 0.013600
vn -0.112900 -0.502500 -0.857200
vn 0.008400 0.999900 0.010900
vn 0.530400 0.490700 0.691300
vn 0.005300 0.999900 0.012700
vn -0.526300 0.502500 -0.685900
vn -0.526300 -0.502500 -0.685900
vn 0.530400 -0.490700 0.691300
vn -0.685900 -0.502500 -0.526300
vn 0.805000 -0.490700 0.333400
vn 0.691300 0.490700 0.530400
vn -0.798800 0.502500 -0.330900
vn 0.008400 -0.999900 0.010900
vn 0.691300 -0.490700 0.530400
vn 0.010900 -0.999900 0.008400
vn -0.685900 0.502500 -0.526300
vn 0.010900 0.999900 0.008400
vn -0.798800 -0.502500 -0.330900
vn 0.012700 0.999900 0.005300
vn 0.863900 -0.490700 0.113700
vn 0.013600 0.999900 -0.001800
vn 0.013600 -0.999900 0.001800
vn 0.863900 0.490700 0.113700
vn -0.857200 -0.502500 -0.112800
vn 0.012700 -0.999900 0.005300
vn 0.013600 0.999900 0.001800
vn -0.857200 0.502500 -0.112800
vn 0.012700 0.999900 -0.005300
vn 0.805000 0.490700 -0.333400
vn -0.798800 0.502500 0.330900
vn -0.857200 0.502500 0.112900
vn 0.013600 -0.999900 -0.001800
vn 0.863900 0.490700 -0.113700
vn -0.330900 0.502500 0.798800
vn -0.798800 -0.502500 0.330900
vn 0.863900 -0.490700 -0.113700
vn 0.012700 -0.999900 -0.005300
vn 0.691300 0.490700 -0.530400
vn -0.857200 -0.502500 0.112900
vn 0.333400 0.490700 -0.805000
vn 0.805000 -0.490700 -0.333400
vn -0.685900 -0.502500 0.526300
vn 0.010900 0.999900 -0.008400
vn 0.691300 -0.490700 -0.530400
vn 0.008400 0.999900 -0.010900
vn -0.685900 0.502500 0.526300
vn 0.530400 0.490700 -0.691300
vn 0.010900 -0.999900 -0.008400
vn -0.526300 0.502500 0.685900
vn 0.005300 0.999900 -0.012700
vn -0.526300 -0.502500 0.685900
vn 0.008400 -0.999900 -0.010900
vn -0.330900 -0.502500 0.798800
vn 0.530400 -0.490700 -0.691300
vn -0.112900 0.502500 0.857200
vn 0.112900 -0.502500 0.857200
vn 0.333400 -0.490700 -0.805000
vn 0.005300 -0.999900 -0.012700
vn 0.113700 0.490700 -0.863900
vn 0.857200 0.502500 0.112800
vn -0.112900 -0.502500 0.857200
vn 0.001800 0.999900 -0.013600
vn 0.113700 -0.490700 -0.863900
vn -0.113700 0.490700 -0.863900
vn -0.005300 -0.999900 -0.012700
vn 0.112900 0.502500 0.857200
vn 0.001800 -0.999900 -0.013600
vn -0.113700 -0.490700 -0.863900
vn -0.530400 -0.490700 -0.691300
vn -0.001800 0.999900 -0.013600
vn 0.330900 0.502500 0.798800
vn -0.001800 -0.999900 -0.013600
vn -0.010900 -0.999900 -0.008400
vn -0.333400 -0.490700 -0.805000
vn -0.005300 0.999900 -0.012700
vn -0.333400 0.490700 -0.805000
vn -0.008400 -0.999900 -0.010900
vn -0.008400 0.999900 -0.010900
vn -0.530400 0.490700 -0.691300
vn 0.330900 -0.502500 0.798800
vn 0.526300 0.502500 0.685900
vn 0.526300 -0.502500 0.685900
vn 0.685900 -0.502500 0.526300
vn -0.805000 0.490700 -0.333400
vn -0.010900 0.999900 -0.008400
vn -0.691300 -0.490700 -0.530400
vn 0.798800 0.502500 0.330900
vn 0.685900 0.502500 0.526300
vn -0.805000 -0.490700 -0.333400
vn -0.691300 0.490700 -0.530400
vn -0.012700 -0.999900 -0.005300
vn -0.012700 0.999900 -0.005300
vn 0.798800 -0.502500 0.330900
vn -0.012700 0.999900 0.005300
vn -0.863900 0.490700 -0.113700
vn 0.857200 0.502500 -0.112900
vn 0.798800 -0.502500 -0.330900
vn 0.333400 -0.490700 0.805000
vn 0.857200 -0.502500 0.112800
vn -0.530400 -0.490700 0.691300
vn -0.013600 0.999900 -0.001800
vn -0.013600 -0.999900 -0.001800
vn 0.685900 -0.502500 -0.526300
vn -0.530400 0.490700 0.691300
vn 0.798800 0.502500 -0.330900
vn -0.012700 -0.999900 0.005300
usemtl None
s off
f 11/1/1 10/2/1 16/3/1 17/4/1
f 9/5/2 3/6/2 2/7/2 8/8/2
f 10/9/3 4/10/3 3/6/3 9/5/3
f 5/11/4 4/12/4 10/2/4 11/1/4
f 12/13/5 6/14/5 5/11/5 11/1/5
f 7/15/6 1/16/6 6/17/6 12/18/6
f 21/19/7 22/20/7 16/21/7 15/22/7
f 16/21/8 10/9/8 9/5/8 15/22/8
f 20/23/9 14/24/9 13/25/9 19/26/9
f 4/12/10 5/11/10 143/27/10 142/28/10
f 41/29/11 35/30/11 34/31/11 40/32/11
f 20/23/12 19/26/12 25/33/12 26/34/12
f 17/35/13 16/36/13 22/37/13 23/38/13
f 27/39/14 21/19/14 20/40/14 26/41/14
f 24/42/15 18/43/15 17/35/15 23/38/15
f 38/44/16 37/45/16 43/46/16 44/47/16
f 15/22/17 14/48/17 20/40/17 21/19/17
f 28/49/18 27/39/18 33/50/18 34/51/18
f 30/52/19 25/53/19 19/54/19 24/55/19
f 36/56/20 30/57/20 29/58/20 35/30/20
f 31/59/21 32/60/21 26/34/21 25/33/21
f 54/61/22 49/62/22 43/63/22 48/64/22
f 24/42/23 23/38/23 29/58/23 30/57/23
f 34/51/24 33/50/24 39/65/24 40/66/24
f 31/67/25 25/53/25 30/52/25 36/68/25
f 27/39/26 26/41/26 32/69/26 33/50/26
f 38/44/27 32/60/27 31/59/27 37/45/27
f 46/70/28 45/71/28 51/72/28 52/73/28
f 29/58/29 28/74/29 34/31/29 35/30/29
f 69/75/30 70/76/30 64/77/30 63/78/30
f 44/79/31 45/71/31 39/80/31 38/81/31
f 37/82/32 31/67/32 36/68/32 42/83/32
f 44/47/33 43/46/33 49/84/33 50/85/33
f 39/65/34 33/50/34 32/69/34 38/86/34
f 40/66/35 39/65/35 45/87/35 46/88/35
f 42/89/36 36/56/36 35/30/36 41/29/36
f 46/90/37 47/91/37 41/29/37 40/32/37
f 54/92/38 48/93/38 47/91/38 53/94/38
f 48/93/39 42/89/39 41/29/39 47/91/39
f 43/63/40 37/95/40 42/96/40 48/64/40
f 51/72/41 50/97/41 56/98/41 57/99/41
f 58/100/42 52/73/42 51/72/42 57/99/42
f 51/72/43 45/71/43 44/79/43 50/97/43
f 50/85/44 49/84/44 55/101/44 56/102/44
f 55/103/45 49/62/45 54/61/45 60/104/45
f 59/105/46 53/94/46 52/106/46 58/107/46
f 61/108/47 55/103/47 60/104/47 66/109/47
f 65/110/48 64/111/48 70/112/48 71/113/48
f 64/77/49 58/100/49 57/99/49 63/78/49
f 68/114/50 62/115/50 61/116/50 67/117/50
f 60/118/51 54/92/51 53/94/51 59/105/51
f 65/119/52 59/105/52 58/107/52 64/120/52
f 65/119/53 66/121/53 60/118/53 59/105/53
f 56/102/54 55/101/54 61/122/54 62/123/54
f 63/78/55 57/99/55 56/98/55 62/124/55
f 61/108/56 66/109/56 72/125/56 67/126/56
f 69/75/57 63/78/57 62/124/57 68/127/57
f 71/113/58 70/112/58 76/128/58 77/129/58
f 81/130/59 75/131/59 74/132/59 80/133/59
f 78/134/60 72/135/60 71/113/60 77/129/60
f 76/136/61 70/76/61 69/75/61 75/131/61
f 73/137/62 67/126/62 72/125/62 78/138/62
f 72/135/63 66/139/63 65/110/63 71/113/63
f 69/75/64 68/127/64 74/132/64 75/131/64
f 74/140/65 68/114/65 67/117/65 73/141/65
f 87/142/66 81/130/66 80/133/66 86/143/66
f 88/144/67 82/145/67 81/130/67 87/142/67
f 86/146/68 80/147/68 79/148/68 85/149/68
f 80/147/69 74/140/69 73/141/69 79/148/69
f 84/150/70 78/134/70 77/129/70 83/151/70
f 82/145/71 76/136/71 75/131/71 81/130/71
f 103/152/72 104/153/72 98/154/72 97/155/72
f 85/156/73 79/157/73 84/158/73 90/159/73
f 77/129/74 76/128/74 82/160/74 83/151/74
f 84/150/75 83/151/75 89/161/75 90/162/75
f 94/163/76 88/164/76 87/165/76 93/166/76
f 84/158/77 79/157/77 73/137/77 78/138/77
f 106/167/78 100/168/78 99/169/78 105/170/78
f 83/151/79 82/160/79 88/171/79 89/161/79
f 96/172/80 91/173/80 85/174/80 90/175/80
f 93/166/81 87/165/81 86/43/81 92/176/81
f 89/161/82 88/171/82 94/177/82 95/178/82
f 99/169/83 93/166/83 92/176/83 98/179/83
f 92/180/84 86/146/84 85/149/84 91/181/84
f 94/163/85 93/166/85 99/169/85 100/168/85
f 90/162/86 89/161/86 95/178/86 96/182/86
f 97/155/87 98/154/87 92/180/87 91/181/87
f 105/170/88 99/169/88 98/179/88 104/183/88
f 97/184/89 91/173/89 96/172/89 102/185/89
f 101/186/90 102/187/90 96/182/90 95/178/90
f 97/184/91 102/185/91 108/188/91 103/189/91
f 95/178/92 94/177/92 100/190/92 101/186/92
f 104/153/93 103/152/93 109/191/93 110/192/93
f 120/193/94 115/194/94 109/195/94 114/196/94
f 106/197/95 107/198/95 101/186/95 100/190/95
f 102/187/96 101/186/96 107/198/96 108/199/96
f 112/200/97 106/167/97 105/170/97 111/201/97
f 1/202/98 2/203/98 140/204/98 139/205/98
f 109/195/99 103/189/99 108/188/99 114/196/99
f 105/170/100 104/183/100 110/206/100 111/201/100
f 113/207/101 107/198/101 106/197/101 112/208/101
f 112/200/102 111/201/102 117/209/102 118/210/102
f 120/211/103 119/212/103 125/213/103 126/214/103
f 110/215/104 109/216/104 115/217/104 116/218/104
f 108/199/105 107/198/105 113/207/105 114/219/105
f 119/220/106 113/207/106 112/208/106 118/221/106
f 125/213/107 124/222/107 130/223/107 131/224/107
f 117/209/108 111/201/108 110/206/108 116/225/108
f 122/226/109 116/218/109 115/217/109 121/227/109
f 114/219/110 113/207/110 119/220/110 120/228/110
f 138/229/111 132/230/111 131/224/111 137/231/111
f 119/212/112 118/232/112 124/222/112 125/213/112
f 122/233/113 123/234/113 117/209/113 116/225/113
f 124/235/114 118/210/114 117/209/114 123/234/114
f 132/230/115 126/214/115 125/213/115 131/224/115
f 129/236/116 123/234/116 122/233/116 128/237/116
f 124/235/117 123/234/117 129/236/117 130/238/117
f 121/239/118 115/194/118 120/193/118 126/240/118
f 128/241/119 122/226/119 121/227/119 127/242/119
f 127/243/120 121/239/120 126/240/120 132/244/120
f 127/243/121 132/244/121 138/245/121 133/246/121
f 142/247/122 136/248/122 135/249/122 141/250/122
f 135/251/123 129/236/123 128/237/123 134/252/123
f 137/231/124 131/224/124 130/223/124 136/253/124
f 140/204/125 134/254/125 133/255/125 139/205/125
f 134/254/126 128/241/126 127/242/126 133/255/126
f 143/27/127 137/231/127 136/253/127 142/28/127
f 130/238/128 129/236/128 135/251/128 136/256/128
f 144/257/129 138/229/129 137/231/129 143/27/129
f 135/249/130 134/258/130 140/259/130 141/250/130
f 133/260/131 138/261/131 144/262/131 139/263/131
f 15/22/132 9/5/132 8/8/132 14/48/132
f 142/247/133 141/250/133 3/6/133 4/10/133
f 8/264/134 2/203/134 1/202/134 7/265/134
f 13/266/135 7/15/135 12/18/135 18/267/135
f 47/91/136 46/90/136 52/106/136 53/94/136
f 139/263/137 144/262/137 6/17/137 1/16/137
f 28/74/138 29/58/138 23/38/138 22/37/138
f 2/7/139 3/6/139 141/250/139 140/259/139
f 5/11/140 6/14/140 144/257/140 143/27/140
f 19/54/141 13/266/141 18/267/141 24/55/141
f 28/49/142 22/20/142 21/19/142 27/39/142
f 14/268/143 8/264/143 7/265/143 13/269/143
f 18/270/144 12/13/144 11/1/144 17/4/144
